# xmcd
#
# Track frame offsets:
#	150
#	80062
#	114447
#	156796
#
# Disc length: 2980 seconds
#
# Revision: 1
# Processed by: cddbd v1.5.1PL0 Copyright (c) Steve Scherf et al.
# Submitted via: audiograbber 1.83.01
#
DISCID=280ba204
DTITLE=Captain Beefheart and his Magic Band - Mirror Man
DYEAR=1965
DGENRE=Blues
TTITLE0=Tarotplane
TTITLE1=Kandy Korn
TTITLE2=25th Century Quaker
TTITLE3=Mirror Man
EXTD=
EXTT0=
EXTT1=
EXTT2=
EXTT3=
PLAYORDER=
